<mxfile host="drawio-plugin" modified="2021-10-20T13:49:52.804Z" agent="5.0 (X11; Linux x86_64) AppleWebKit/537.36 (KHTML, like Gecko) Chrome/87.0.4280.141 Safari/537.36" etag="_xb2OUhYYna8pv0-FM6g" version="14.7.4" type="embed"><diagram id="oVmoRHmboEGZf3GWoIIo" name="real"><mxGraphModel dx="1424" dy="747" grid="1" gridSize="10" guides="1" tooltips="1" connect="1" arrows="1" fold="1" page="1" pageScale="1" pageWidth="850" pageHeight="1100" math="0" shadow="0"><root><mxCell id="0"/><mxCell id="1" parent="0"/><mxCell id="3" value="React FE" style="rounded=0;whiteSpace=wrap;html=1;fillColor=#e1d5e7;strokeColor=#9673a6;" parent="1" vertex="1"><mxGeometry x="160" y="80" width="120" height="40" as="geometry"/></mxCell><mxCell id="6" value="mysql" style="shape=cylinder;whiteSpace=wrap;html=1;boundedLbl=1;backgroundOutline=1;rounded=0;fillColor=#f5f5f5;strokeColor=#666666;fontColor=#333333;" parent="1" vertex="1"><mxGeometry x="160" y="170" width="60" height="60" as="geometry"/></mxCell><mxCell id="7" value="PROD host" style="rounded=0;whiteSpace=wrap;html=1;fillColor=#ffff88;strokeColor=#36393d;" parent="1" vertex="1"><mxGeometry x="640" y="40" width="120" height="40" as="geometry"/></mxCell><mxCell id="8" style="edgeStyle=orthogonalEdgeStyle;rounded=0;orthogonalLoop=1;jettySize=auto;html=1;entryX=0;entryY=0.5;entryDx=0;entryDy=0;" parent="1" source="9" target="11" edge="1"><mxGeometry relative="1" as="geometry"/></mxCell><mxCell id="9" value="localhost" style="rounded=0;whiteSpace=wrap;html=1;fillColor=#ffff88;strokeColor=#36393d;" parent="1" vertex="1"><mxGeometry x="160" y="40" width="120" height="40" as="geometry"/></mxCell><mxCell id="10" style="edgeStyle=orthogonalEdgeStyle;rounded=0;orthogonalLoop=1;jettySize=auto;html=1;entryX=0;entryY=0.5;entryDx=0;entryDy=0;startArrow=none;" parent="1" source="RA-fuOtE1b7xeYD3R6rW-19" target="7" edge="1"><mxGeometry relative="1" as="geometry"/></mxCell><mxCell id="RA-fuOtE1b7xeYD3R6rW-21" value="" style="edgeStyle=orthogonalEdgeStyle;rounded=0;orthogonalLoop=1;jettySize=auto;html=1;" parent="1" source="11" target="RA-fuOtE1b7xeYD3R6rW-19" edge="1"><mxGeometry relative="1" as="geometry"/></mxCell><mxCell id="11" value="code host" style="rounded=0;whiteSpace=wrap;html=1;fillColor=#ffff88;strokeColor=#36393d;" parent="1" vertex="1"><mxGeometry x="320" y="40" width="120" height="40" as="geometry"/></mxCell><mxCell id="16" value="app-client" style="rounded=0;whiteSpace=wrap;html=1;fillColor=#f5f5f5;strokeColor=#666666;fontColor=#333333;" parent="1" vertex="1"><mxGeometry x="20" y="80" width="120" height="40" as="geometry"/></mxCell><mxCell id="17" value="app-server" style="rounded=0;whiteSpace=wrap;html=1;fillColor=#f5f5f5;strokeColor=#666666;fontColor=#333333;" parent="1" vertex="1"><mxGeometry x="20" y="120" width="120" height="40" as="geometry"/></mxCell><mxCell id="18" value="Java BE&lt;br&gt;web api" style="rounded=0;whiteSpace=wrap;html=1;fillColor=#d5e8d4;strokeColor=#82b366;" parent="1" vertex="1"><mxGeometry x="160" y="120" width="120" height="40" as="geometry"/></mxCell><mxCell id="19" value="h2" style="shape=cylinder;whiteSpace=wrap;html=1;boundedLbl=1;backgroundOutline=1;rounded=0;fillColor=#f5f5f5;strokeColor=#666666;fontColor=#333333;" parent="1" vertex="1"><mxGeometry x="220" y="170" width="60" height="60" as="geometry"/></mxCell><mxCell id="RA-fuOtE1b7xeYD3R6rW-19" value="TEST host" style="rounded=0;whiteSpace=wrap;html=1;fillColor=#ffff88;strokeColor=#36393d;" parent="1" vertex="1"><mxGeometry x="480" y="40" width="120" height="40" as="geometry"/></mxCell><mxCell id="RA-fuOtE1b7xeYD3R6rW-22" value="graphite" style="shape=cylinder;whiteSpace=wrap;html=1;boundedLbl=1;backgroundOutline=1;rounded=0;fillColor=#f5f5f5;strokeColor=#666666;fontColor=#333333;" parent="1" vertex="1"><mxGeometry x="230" y="370" width="60" height="60" as="geometry"/></mxCell><mxCell id="RA-fuOtE1b7xeYD3R6rW-23" value="monitoring host" style="rounded=0;whiteSpace=wrap;html=1;fillColor=#ffff88;strokeColor=#36393d;" parent="1" vertex="1"><mxGeometry x="200" y="280" width="120" height="40" as="geometry"/></mxCell><mxCell id="RA-fuOtE1b7xeYD3R6rW-25" value="logstash" style="shape=cylinder;whiteSpace=wrap;html=1;boundedLbl=1;backgroundOutline=1;rounded=0;fillColor=#f5f5f5;strokeColor=#666666;fontColor=#333333;" parent="1" vertex="1"><mxGeometry x="390" y="370" width="60" height="60" as="geometry"/></mxCell><mxCell id="RA-fuOtE1b7xeYD3R6rW-26" value="tasks host" style="rounded=0;whiteSpace=wrap;html=1;fillColor=#ffff88;strokeColor=#36393d;" parent="1" vertex="1"><mxGeometry x="560" y="280" width="120" height="40" as="geometry"/></mxCell><mxCell id="RA-fuOtE1b7xeYD3R6rW-27" value="Jira" style="rounded=0;whiteSpace=wrap;html=1;fillColor=#dae8fc;strokeColor=#6c8ebf;" parent="1" vertex="1"><mxGeometry x="560" y="320" width="120" height="40" as="geometry"/></mxCell><mxCell id="RA-fuOtE1b7xeYD3R6rW-28" value="documentation host" style="rounded=0;whiteSpace=wrap;html=1;fillColor=#ffff88;strokeColor=#36393d;" parent="1" vertex="1"><mxGeometry x="720" y="280" width="120" height="40" as="geometry"/></mxCell><mxCell id="RA-fuOtE1b7xeYD3R6rW-29" value="Bitbucket" style="rounded=0;whiteSpace=wrap;html=1;fillColor=#dae8fc;strokeColor=#6c8ebf;" parent="1" vertex="1"><mxGeometry x="320" y="80" width="120" height="40" as="geometry"/></mxCell><mxCell id="RA-fuOtE1b7xeYD3R6rW-30" value="Confluence" style="rounded=0;whiteSpace=wrap;html=1;fillColor=#dae8fc;strokeColor=#6c8ebf;" parent="1" vertex="1"><mxGeometry x="720" y="320" width="120" height="40" as="geometry"/></mxCell><mxCell id="aiulW7GKZlo0OsM0wuAz-42" style="edgeStyle=orthogonalEdgeStyle;rounded=0;orthogonalLoop=1;jettySize=auto;html=1;" edge="1" parent="1" source="RA-fuOtE1b7xeYD3R6rW-35" target="aiulW7GKZlo0OsM0wuAz-35"><mxGeometry relative="1" as="geometry"><mxPoint x="600" y="619.9999999999998" as="targetPoint"/></mxGeometry></mxCell><mxCell id="RA-fuOtE1b7xeYD3R6rW-35" value="nginx" style="rounded=0;whiteSpace=wrap;html=1;fillColor=#cdeb8b;strokeColor=#36393d;" parent="1" vertex="1"><mxGeometry x="400" y="640" width="120" height="40" as="geometry"/></mxCell><mxCell id="RA-fuOtE1b7xeYD3R6rW-37" style="edgeStyle=orthogonalEdgeStyle;rounded=0;orthogonalLoop=1;jettySize=auto;html=1;" parent="1" source="RA-fuOtE1b7xeYD3R6rW-38" target="RA-fuOtE1b7xeYD3R6rW-39" edge="1"><mxGeometry relative="1" as="geometry"/></mxCell><mxCell id="RA-fuOtE1b7xeYD3R6rW-38" value="web" style="ellipse;shape=cloud;whiteSpace=wrap;html=1;fillColor=#cce5ff;strokeColor=#36393d;" parent="1" vertex="1"><mxGeometry x="50" y="580" width="120" height="80" as="geometry"/></mxCell><mxCell id="aiulW7GKZlo0OsM0wuAz-45" value="" style="edgeStyle=orthogonalEdgeStyle;rounded=0;orthogonalLoop=1;jettySize=auto;html=1;" edge="1" parent="1" source="RA-fuOtE1b7xeYD3R6rW-39" target="aiulW7GKZlo0OsM0wuAz-41"><mxGeometry relative="1" as="geometry"/></mxCell><mxCell id="RA-fuOtE1b7xeYD3R6rW-39" value="ufw&lt;br&gt;firewall" style="shape=process;whiteSpace=wrap;html=1;backgroundOutline=1;rotation=90;horizontal=0;fillColor=#ffcccc;strokeColor=#36393d;" parent="1" vertex="1"><mxGeometry x="202.5" y="597.5" width="120" height="45" as="geometry"/></mxCell><mxCell id="aiulW7GKZlo0OsM0wuAz-19" value="artifacts host" style="rounded=0;whiteSpace=wrap;html=1;fillColor=#ffff88;strokeColor=#36393d;" vertex="1" parent="1"><mxGeometry x="40" y="280" width="120" height="40" as="geometry"/></mxCell><mxCell id="aiulW7GKZlo0OsM0wuAz-20" value="Artifactory" style="rounded=0;whiteSpace=wrap;html=1;fillColor=#dae8fc;strokeColor=#6c8ebf;" vertex="1" parent="1"><mxGeometry x="40" y="320" width="120" height="40" as="geometry"/></mxCell><mxCell id="aiulW7GKZlo0OsM0wuAz-21" value="Grafana" style="rounded=0;whiteSpace=wrap;html=1;fillColor=#dae8fc;strokeColor=#6c8ebf;" vertex="1" parent="1"><mxGeometry x="200" y="320" width="120" height="40" as="geometry"/></mxCell><mxCell id="aiulW7GKZlo0OsM0wuAz-22" value="logs host" style="rounded=0;whiteSpace=wrap;html=1;fillColor=#ffff88;strokeColor=#36393d;" vertex="1" parent="1"><mxGeometry x="360" y="280" width="120" height="40" as="geometry"/></mxCell><mxCell id="aiulW7GKZlo0OsM0wuAz-23" value="Kibana" style="rounded=0;whiteSpace=wrap;html=1;fillColor=#dae8fc;strokeColor=#6c8ebf;" vertex="1" parent="1"><mxGeometry x="360" y="320" width="120" height="40" as="geometry"/></mxCell><mxCell id="aiulW7GKZlo0OsM0wuAz-25" value="jira" style="shape=cylinder;whiteSpace=wrap;html=1;boundedLbl=1;backgroundOutline=1;rounded=0;fillColor=#f5f5f5;strokeColor=#666666;fontColor=#333333;" vertex="1" parent="1"><mxGeometry x="590" y="370" width="60" height="60" as="geometry"/></mxCell><mxCell id="aiulW7GKZlo0OsM0wuAz-26" value="confluence" style="shape=cylinder;whiteSpace=wrap;html=1;boundedLbl=1;backgroundOutline=1;rounded=0;fillColor=#f5f5f5;strokeColor=#666666;fontColor=#333333;" vertex="1" parent="1"><mxGeometry x="750" y="370" width="70" height="60" as="geometry"/></mxCell><mxCell id="aiulW7GKZlo0OsM0wuAz-27" value="artifactory" style="shape=cylinder;whiteSpace=wrap;html=1;boundedLbl=1;backgroundOutline=1;rounded=0;fillColor=#f5f5f5;strokeColor=#666666;fontColor=#333333;" vertex="1" parent="1"><mxGeometry x="65" y="370" width="70" height="60" as="geometry"/></mxCell><mxCell id="aiulW7GKZlo0OsM0wuAz-28" value="React FE" style="rounded=0;whiteSpace=wrap;html=1;fillColor=#e1d5e7;strokeColor=#9673a6;" vertex="1" parent="1"><mxGeometry x="480" y="80" width="120" height="40" as="geometry"/></mxCell><mxCell id="aiulW7GKZlo0OsM0wuAz-29" value="Java BE&lt;br&gt;web api" style="rounded=0;whiteSpace=wrap;html=1;fillColor=#d5e8d4;strokeColor=#82b366;" vertex="1" parent="1"><mxGeometry x="480" y="120" width="120" height="40" as="geometry"/></mxCell><mxCell id="aiulW7GKZlo0OsM0wuAz-30" value="React FE" style="rounded=0;whiteSpace=wrap;html=1;fillColor=#e1d5e7;strokeColor=#9673a6;" vertex="1" parent="1"><mxGeometry x="640" y="80" width="120" height="40" as="geometry"/></mxCell><mxCell id="aiulW7GKZlo0OsM0wuAz-31" value="Java BE&lt;br&gt;web api" style="rounded=0;whiteSpace=wrap;html=1;fillColor=#d5e8d4;strokeColor=#82b366;" vertex="1" parent="1"><mxGeometry x="640" y="120" width="120" height="40" as="geometry"/></mxCell><mxCell id="aiulW7GKZlo0OsM0wuAz-32" value="mysql" style="shape=cylinder;whiteSpace=wrap;html=1;boundedLbl=1;backgroundOutline=1;rounded=0;fillColor=#f5f5f5;strokeColor=#666666;fontColor=#333333;" vertex="1" parent="1"><mxGeometry x="510" y="170" width="60" height="60" as="geometry"/></mxCell><mxCell id="aiulW7GKZlo0OsM0wuAz-33" value="mysql" style="shape=cylinder;whiteSpace=wrap;html=1;boundedLbl=1;backgroundOutline=1;rounded=0;fillColor=#f5f5f5;strokeColor=#666666;fontColor=#333333;" vertex="1" parent="1"><mxGeometry x="670" y="170" width="60" height="60" as="geometry"/></mxCell><mxCell id="aiulW7GKZlo0OsM0wuAz-34" value="PROD host" style="rounded=0;whiteSpace=wrap;html=1;fillColor=#ffff88;strokeColor=#36393d;" vertex="1" parent="1"><mxGeometry x="400" y="600" width="120" height="40" as="geometry"/></mxCell><mxCell id="aiulW7GKZlo0OsM0wuAz-38" style="edgeStyle=orthogonalEdgeStyle;rounded=0;orthogonalLoop=1;jettySize=auto;html=1;entryX=0.5;entryY=0;entryDx=0;entryDy=0;" edge="1" parent="1" source="aiulW7GKZlo0OsM0wuAz-35" target="aiulW7GKZlo0OsM0wuAz-37"><mxGeometry relative="1" as="geometry"/></mxCell><mxCell id="aiulW7GKZlo0OsM0wuAz-35" value="React FE" style="rounded=0;whiteSpace=wrap;html=1;fillColor=#e1d5e7;strokeColor=#9673a6;" vertex="1" parent="1"><mxGeometry x="560" y="640" width="120" height="40" as="geometry"/></mxCell><mxCell id="aiulW7GKZlo0OsM0wuAz-44" value="" style="edgeStyle=orthogonalEdgeStyle;rounded=0;orthogonalLoop=1;jettySize=auto;html=1;" edge="1" parent="1" source="aiulW7GKZlo0OsM0wuAz-37" target="aiulW7GKZlo0OsM0wuAz-39"><mxGeometry relative="1" as="geometry"/></mxCell><mxCell id="aiulW7GKZlo0OsM0wuAz-37" value="Java BE&lt;br&gt;web api" style="rounded=0;whiteSpace=wrap;html=1;fillColor=#d5e8d4;strokeColor=#82b366;" vertex="1" parent="1"><mxGeometry x="560" y="720" width="120" height="40" as="geometry"/></mxCell><mxCell id="aiulW7GKZlo0OsM0wuAz-39" value="mysql" style="shape=cylinder;whiteSpace=wrap;html=1;boundedLbl=1;backgroundOutline=1;rounded=0;fillColor=#f5f5f5;strokeColor=#666666;fontColor=#333333;" vertex="1" parent="1"><mxGeometry x="590" y="800" width="60" height="60" as="geometry"/></mxCell><mxCell id="aiulW7GKZlo0OsM0wuAz-46" value="" style="edgeStyle=orthogonalEdgeStyle;rounded=0;orthogonalLoop=1;jettySize=auto;html=1;" edge="1" parent="1" source="aiulW7GKZlo0OsM0wuAz-41" target="aiulW7GKZlo0OsM0wuAz-34"><mxGeometry relative="1" as="geometry"/></mxCell><mxCell id="aiulW7GKZlo0OsM0wuAz-41" value="443" style="rounded=0;whiteSpace=wrap;html=1;" vertex="1" parent="1"><mxGeometry x="320" y="600" width="40" height="40" as="geometry"/></mxCell></root></mxGraphModel></diagram></mxfile>